<svg width="46" height="62" viewBox="0 0 46 62" fill="none" xmlns="http://www.w3.org/2000/svg">
<path fill-rule="evenodd" clip-rule="evenodd" d="M7.05834 7.19489C6.94913 10.6629 6.80352 14.8499 6.73662 16.5009C6.65791 18.4249 5.49399 20.6389 3.49181 22.6739L0.370972 25.8459V42.2319C0.370972 53.8669 0.732053 59.1189 1.61557 60.3479C2.67815 61.8249 4.2976 62.0359 12.6841 61.7889L22.5081 61.4999L22.7757 43.3219L23.0443 25.1429L20.075 22.3219C17.2473 19.6339 17.0948 19.0739 16.8557 10.4999L16.6048 1.49989L11.9315 1.19489L7.25807 0.889893L7.05834 7.19489ZM13.8992 3.68889C12.9527 3.94089 11.4021 3.94089 10.4556 3.68889C9.50916 3.43789 10.2835 3.23189 12.1774 3.23189C14.0714 3.23189 14.8457 3.43789 13.8992 3.68889ZM15.129 6.99989C15.129 7.54989 13.8008 7.99989 12.1774 7.99989C10.554 7.99989 9.22581 7.54989 9.22581 6.99989C9.22581 6.44989 10.554 5.99989 12.1774 5.99989C13.8008 5.99989 15.129 6.44989 15.129 6.99989ZM15.129 12.4999C15.129 14.6899 14.703 14.9999 11.6855 14.9999C9.79154 14.9999 8.24194 14.5869 8.24194 14.0819C8.24194 11.4499 9.67741 9.99989 12.2827 9.99989C14.6627 9.99989 15.129 10.4089 15.129 12.4999ZM15.129 18.8119C15.129 19.8089 16.4573 21.6219 18.0806 22.8419C22.879 26.4469 21.9906 27.9999 15.129 27.9999C11.8498 27.9999 9.22581 28.4439 9.22581 28.9999C9.22581 29.5559 11.8498 29.9999 15.129 29.9999H21.0323V42.9999V55.9999H11.6855H2.33871V42.9999C2.33871 30.6669 2.44005 29.9999 4.30646 29.9999C5.38871 29.9999 6.2742 29.5499 6.2742 28.9999C6.2742 28.4499 5.38871 27.9999 4.30646 27.9999C1.52702 27.9999 1.84481 26.8779 5.70552 23.0749C7.56405 21.2439 8.83915 19.1399 8.55186 18.3789C8.16913 17.3639 8.96804 16.9999 11.5802 16.9999C14.3508 16.9999 15.129 17.3979 15.129 18.8119ZM9.05658 32.0459C4.822 33.2369 4.18544 33.9019 5.28541 35.9909C6.0971 37.5319 6.80254 37.7059 9.29075 36.9809C11.0224 36.4759 13.2774 36.4749 14.5791 36.9769C16.0499 37.5459 17.2365 37.4579 17.9557 36.7269C19.8388 34.8129 19.1885 33.0659 16.3589 32.4359C14.8713 32.1039 13.2105 31.7149 12.6694 31.5699C12.1282 31.4249 10.5029 31.6399 9.05658 32.0459ZM14.8831 33.6299C18.7871 34.6939 17.2542 35.5109 12.0426 35.1439C8.65517 34.9059 7.43713 34.4979 8.35213 33.9099C9.95584 32.8779 11.8262 32.7979 14.8831 33.6299ZM7.99597 40.0799C7.0485 40.6409 6.2742 42.1859 6.2742 43.5149C6.2742 47.8189 13.3423 49.6639 16.4523 46.1709C18.6336 43.7209 18.5037 42.4149 15.8935 40.5569C13.3945 38.7769 10.493 38.6019 7.99597 40.0799ZM15.0267 41.9139C17.2798 43.3649 15.5 45.9999 12.266 45.9999C9.07725 45.9999 7.75984 44.7199 8.61581 42.4519C9.22286 40.8459 12.8878 40.5379 15.0267 41.9139ZM30.5433 42.6669C29.3627 43.8659 29.8163 59.5279 31.0677 60.7999C31.7171 61.4599 34.7277 61.9999 37.7581 61.9999C40.7884 61.9999 43.799 61.4599 44.4484 60.7999C45.6772 59.5509 46.12 46.4649 45.0318 43.5819C44.5694 42.3559 42.9441 41.9999 37.8171 41.9999C34.1768 41.9999 30.9034 42.2999 30.5433 42.6669ZM43.6613 45.9999C43.6613 47.6189 43.0051 47.9999 40.2177 47.9999C38.3238 47.9999 36.7742 48.4499 36.7742 48.9999C36.7742 49.5499 38.3238 49.9999 40.2177 49.9999C43.497 49.9999 43.6613 50.1669 43.6613 53.4999V56.9999H37.7581H31.8548V53.6999C31.8548 51.8849 32.3861 49.8599 33.0355 49.1999C33.9534 48.2669 33.9534 47.9999 33.0355 47.9999C32.3861 47.9999 31.8548 47.0999 31.8548 45.9999C31.8548 44.2219 32.5111 43.9999 37.7581 43.9999C43.0051 43.9999 43.6613 44.2219 43.6613 45.9999ZM8.97984 51.7229C10.739 51.9449 13.6158 51.9449 15.375 51.7229C17.1342 51.5019 15.6948 51.3199 12.1774 51.3199C8.66008 51.3199 7.22068 51.5019 8.97984 51.7229ZM21.0323 58.9999C21.0323 59.5959 17.2611 59.9999 11.6855 59.9999C6.10989 59.9999 2.33871 59.5959 2.33871 58.9999C2.33871 58.4039 6.10989 57.9999 11.6855 57.9999C17.2611 57.9999 21.0323 58.4039 21.0323 58.9999ZM40.9556 59.7229C39.1965 59.9449 36.3196 59.9449 34.5605 59.7229C32.8013 59.5019 34.2407 59.3199 37.7581 59.3199C41.2754 59.3199 42.7148 59.5019 40.9556 59.7229Z" fill="black"/>
</svg>
