<svg xmlns="http://www.w3.org/2000/svg" width="64" height="63" viewBox="0 0 64 63">
  <path d="M 9 0 L 9 9 L 11 1 L 13 8 L 19 13 L 28 11 L 32 1 L 33 15 L 30 24 L 14 24 L 12 22 L 11 12 L 9 11 L 11 27 L 5 45 L 4 56 L 13 57 L 25 62 L 36 62 L 40 59 L 43 50 L 50 43 L 51 53 L 55 54 L 58 41 L 57 31 L 55 29 L 50 30 L 43 42 L 37 45 L 37 38 L 32 24 L 35 14 L 48 28 L 59 16 L 56 7 L 39 7 L 39 10 L 43 9 L 44 11 L 42 14 L 38 12 L 36 14 L 34 0 L 30 0 L 30 5 L 25 11 L 17 10 L 14 6 L 14 1 Z M 56 33 L 56 34 L 57 35 L 57 39 L 56 40 L 56 41 L 55 42 L 55 44 L 54 45 L 53 44 L 53 42 L 52 41 L 49 41 L 43 47 L 43 48 L 42 49 L 42 50 L 40 53 L 39 52 L 27 52 L 26 51 L 26 50 L 27 49 L 27 48 L 30 45 L 31 45 L 32 44 L 34 44 L 37 47 L 40 47 L 45 42 L 45 41 L 46 40 L 46 39 L 47 38 L 47 37 L 48 36 L 48 35 L 52 31 L 54 31 Z M 13 26 L 16 26 L 17 27 L 17 31 L 16 32 L 16 34 L 18 34 L 18 29 L 20 26 L 24 26 L 25 27 L 25 29 L 26 30 L 26 34 L 28 34 L 28 32 L 27 31 L 27 27 L 28 26 L 30 26 L 32 28 L 36 41 L 35 42 L 33 42 L 29 44 L 25 48 L 24 53 L 25 54 L 37 54 L 39 58 L 38 59 L 34 60 L 33 61 L 28 61 L 27 60 L 24 60 L 23 59 L 21 59 L 18 57 L 16 57 L 12 55 L 7 55 L 6 54 L 6 49 L 7 48 L 8 39 L 10 35 L 10 32 Z M 50 21 L 51 20 L 52 21 L 51 22 Z M 43 21 L 44 20 L 45 21 L 44 22 Z M 45 17 L 46 16 L 49 16 L 50 17 L 52 17 L 53 16 L 55 16 L 56 17 L 52 21 L 50 19 L 49 20 L 49 21 L 48 22 L 47 22 L 46 21 L 46 18 Z M 39 17 L 40 16 L 42 16 L 44 18 L 44 20 L 43 21 Z M 55 16 L 56 15 L 57 16 L 56 17 Z M 38 16 L 39 15 L 40 16 L 39 17 Z M 45 10 L 46 9 L 49 9 L 50 10 L 50 13 L 49 14 L 46 14 L 45 13 Z M 51 9 L 52 8 L 53 9 L 54 9 L 56 11 L 56 12 L 57 13 L 56 14 L 53 14 L 52 13 L 52 11 L 51 10 Z" fill="#000000" fill-rule="evenodd" />
</svg>