<svg width="54" height="61" viewBox="0 0 54 61" fill="none" xmlns="http://www.w3.org/2000/svg">
<path fill-rule="evenodd" clip-rule="evenodd" d="M22.9228 1.51589C16.7834 4.90589 17.4121 14.0669 24.3051 21.6669C29.2589 27.1289 33.2593 29.3769 36.5376 28.5409C39.746 27.7219 48.1187 19.7069 49.624 16.0129C51.7285 10.8489 50.0845 10.4849 47.6032 15.5659C45.0894 20.7149 38.0911 26.9999 34.8709 26.9999C29.8463 26.9999 20.1128 15.4069 20.1128 9.42289C20.1128 3.07489 27.9779 -0.233114 32.5942 4.17389L34.8709 6.34889L37.2233 4.10289C40.7299 0.753886 45.4741 1.51789 48.3676 5.89789C49.6378 7.82089 50.6128 8.61589 50.6128 7.72989C50.6128 4.82389 49.4037 2.93289 46.6065 1.46289C43.0518 -0.405114 39.8011 -0.396114 37.1515 1.48989C35.2999 2.80789 34.7351 2.80889 32.2587 1.49589C28.7886 -0.343114 26.2807 -0.338114 22.9228 1.51589ZM42.5569 37.6299C39.4134 42.0959 39.2875 42.1659 38.9874 39.6289C38.5722 36.1259 36.3762 35.1039 27.6522 34.3539C20.7966 33.7649 20.1227 33.8909 16.9585 36.3439C14.7862 38.0279 13.2425 38.6169 12.6315 37.9959C11.5856 36.9329 1.66821 43.1779 0.816177 45.4349C0.344903 46.6809 8.3241 59.2749 10.4178 60.5899C11.8247 61.4739 21.7716 54.3069 22.3718 51.9769C22.7171 50.6339 24.0788 49.8589 26.9006 49.3999C29.1202 49.0389 30.9354 48.2959 30.9354 47.7469C30.9354 46.8119 28.7168 47.0219 22.8933 48.5069C20.9167 49.0119 20.0076 48.3789 17.3895 44.6739L14.2539 40.2359L18.091 37.6549C21.8435 35.1309 22.0855 35.1009 29.1271 36.2869C34.618 37.2119 36.4038 37.9149 36.6547 39.2499C36.9242 40.6849 36.2611 40.9999 32.975 40.9999C26.7392 40.9999 28.2622 42.6529 35.1169 43.3249C40.8341 43.8849 41.5681 43.7139 45.5626 40.9009C49.7431 37.9579 53.044 37.6089 52.0601 40.2149C51.1126 42.7239 42.5323 47.3769 38.7365 47.4389C36.6999 47.4729 34.7017 47.8369 34.2963 48.2499C33.891 48.6629 35.7987 48.9999 38.5348 48.9999C42.5667 48.9999 44.4174 48.3659 48.2919 45.6579C51.0329 43.7419 53.2053 41.4019 53.3854 40.1729C53.715 37.9119 49.4017 32.9999 47.0866 32.9999C46.3881 32.9999 44.3495 35.0829 42.5569 37.6299ZM48.6451 35.8849C48.6451 36.3719 47.5382 37.5069 46.1854 38.4079C43.4375 40.2379 43.1502 39.9089 44.9467 36.9859C46.1775 34.9819 48.6451 34.2469 48.6451 35.8849ZM16.4469 46.2779C19.2283 50.2919 20.1374 52.3749 19.4231 53.1009C18.7098 53.8259 17.0068 52.1229 13.8436 47.5239C8.79242 40.1799 8.60253 39.7119 10.8664 40.1769C11.7342 40.3549 14.245 43.0999 16.4469 46.2779ZM12.048 47.9509C14.3188 51.2239 16.1774 54.3639 16.1774 54.9279C16.1774 56.5629 11.1931 59.5029 10.4365 58.3149C10.0764 57.7509 8.05747 54.7619 5.94903 51.6729L2.11489 46.0579L4.47323 44.0619C5.76997 42.9649 7.07556 42.0519 7.37466 42.0329C7.67376 42.0149 9.77727 44.6779 12.048 47.9509Z" fill="black"/>
</svg>
