<svg width="60" height="58" viewBox="0 0 60 58" fill="none" xmlns="http://www.w3.org/2000/svg">
<path fill-rule="evenodd" clip-rule="evenodd" d="M25.7891 0.613C25.1613 1.251 28.9001 7.231 30.3178 7.858C30.7635 8.054 30.1466 9.277 28.9473 10.574L26.767 12.933L23.9217 10.873C22.3563 9.74 20.427 9.066 19.6349 9.375C17.0267 10.392 18.105 13.666 21.9362 16.364C25.9288 19.176 28.4819 19.688 29.573 17.893C30.0423 17.122 30.5018 17.197 31.0921 18.143C32.8523 20.967 31.9146 23.709 28.1307 26.799L24.2936 29.933L23.6846 27.467C23.1011 25.102 22.7499 25 15.2233 25C7.50381 25 7.37099 24.958 7.37099 22.5C7.37099 20.251 7.79012 19.984 11.5524 19.84C15.5243 19.688 15.5607 19.66 12.2903 19.273C9.95464 18.997 7.58056 17.613 4.91131 14.969L0.97583 11.071L1.30739 20.786C1.7098 32.602 3.43551 35.775 3.43551 24.7C3.43551 20.233 3.84873 17 4.41938 17C5.03627 17 5.40325 23.333 5.40325 34V51H31.9678C49.0212 51 58.5323 51.358 58.5323 52C58.5323 52.643 48.6936 53 30.9839 53H3.43551V44C3.43551 38.667 3.03507 35 2.45164 35C1.86427 35 1.46777 38.865 1.46777 44.594C1.46777 53.232 1.65667 54.238 3.36762 54.692C4.41249 54.97 5.50557 55.828 5.79581 56.599C6.4983 58.457 9.25215 58.392 9.96644 56.5C10.4456 55.233 13.7248 55 31.0892 55C48.7054 55 51.6452 55.215 51.6452 56.5C51.6452 58.458 55.4695 58.458 56.2084 56.5C56.5203 55.675 57.392 55 58.1456 55C60.3593 55 59.7651 50.032 57.3024 47.944C55.3898 46.322 53.3355 46.062 42.2177 46.033L29.3467 46L28.2714 42.441C26.9028 37.907 28.7131 33.068 32.9162 30.026L35.8737 27.885L37.4499 31.888C39.2445 36.446 48.4791 44.381 51.3382 43.821C54.7611 43.152 53.7585 40.328 48.7083 36.414C44.3763 33.056 43.4574 31.697 41.777 26.166C40.7104 22.659 39.8486 18.599 39.8614 17.145C39.883 14.616 39.9775 14.665 42.0229 18.25C44.1973 22.064 47.3073 23.229 48.3 20.601C48.5903 19.832 47.7038 16.949 46.3303 14.194C44.1176 9.755 43.3905 9.11 39.9283 8.515C37.1075 8.031 36.1728 7.449 36.5615 6.42C36.8576 5.637 36.8222 3.872 36.4828 2.498C35.9318 0.267 35.3602 0 31.1295 0C28.5242 0 26.1206 0.276 25.7891 0.613ZM33.3629 1.607C35.736 2.533 35.2185 4 32.5177 4C29.8387 4 28.3255 2.449 30.2401 1.664C30.9199 1.386 31.5506 1.122 31.6411 1.079C31.7326 1.036 32.5069 1.273 33.3629 1.607ZM34.1815 6.662C33.5056 6.94 32.3987 6.94 31.7218 6.662C31.0459 6.385 31.5988 6.158 32.9516 6.158C34.3045 6.158 34.8584 6.385 34.1815 6.662ZM39.8309 10.692C40.0965 10.944 39.6006 11.556 38.7289 12.052C37.4755 12.765 37.2935 13.79 37.8621 16.95C38.6492 21.328 38.3806 22 35.8442 22C33.9375 22 32.9516 20.061 32.9516 16.311C32.9516 14.556 32.5315 13.95 31.5722 14.324C29.1362 15.274 28.9335 13.718 31.1777 11.29C32.9103 9.416 33.9729 9.065 36.3519 9.583C37.9989 9.941 39.5642 10.44 39.8309 10.692ZM24.6596 13.595C29.4569 16.453 29.8751 17 27.257 17C25.5441 17 17.8856 11.121 19.4943 11.041C19.939 11.018 22.2629 12.168 24.6596 13.595ZM44.7384 14.96C46.9974 19.461 47.1066 20 45.7616 20C44.5279 20 40.7055 12.452 41.5212 11.624C42.4962 10.633 42.6418 10.785 44.7384 14.96ZM39.8604 26.567C40.4979 28.529 40.6927 30.441 40.2943 30.817C39.8958 31.193 39.393 31.001 39.1766 30.392C38.9601 29.782 38.2094 28.485 37.5079 27.51C36.287 25.813 36.1158 25.812 33.5764 27.503C30.0512 29.851 29.0673 28.627 32.0534 25.609C35.6848 21.94 38.4692 22.282 39.8604 26.567ZM22.6417 30.262C23.0401 32.42 22.6072 35.042 21.3636 38.012C20.3286 40.48 19.6723 43.063 19.9035 43.75C20.4919 45.496 24.0397 45.316 24.7225 43.506C25.3896 41.739 27.0484 42.49 27.0484 44.559C27.0484 45.673 25.5264 46 20.3492 46C15.9818 46 12.9859 46.511 11.7404 47.468C7.78914 50.506 7.37099 49.601 7.37099 38V27H14.7057H22.0395L22.6417 30.262ZM27.8355 32.54C26.4581 35.613 25.611 34.973 26.4669 31.506C26.8182 30.083 27.5187 29.178 28.0244 29.495C28.5764 29.842 28.5016 31.053 27.8355 32.54ZM50.7597 41.8C49.277 42.302 39.6892 34.055 40.3986 32.888C40.7075 32.38 43.4122 34.094 46.409 36.696C49.4059 39.299 51.3638 41.595 50.7597 41.8ZM24.1243 40.948C23.5301 42.076 22.5905 43 22.0366 43C21.4827 43 21.2632 42.615 21.5496 42.144C21.8359 41.673 22.5954 39.986 23.2379 38.394C24.1145 36.222 24.5061 35.924 24.8062 37.198C25.0256 38.131 24.7186 39.819 24.1243 40.948ZM24.8603 48.727C22.8453 48.942 19.3034 48.945 16.9893 48.733C14.6752 48.522 16.3242 48.346 20.6532 48.343C24.9823 48.339 26.8752 48.512 24.8603 48.727ZM49.4315 48.742C45.7793 48.934 39.8013 48.934 36.1492 48.742C32.4971 48.549 35.4851 48.392 42.7903 48.392C50.0956 48.392 53.0836 48.549 49.4315 48.742Z" fill="black"/>
</svg>
