<svg xmlns="http://www.w3.org/2000/svg" width="62" height="61" viewBox="0 0 62 61">
  <path d="M 47 34 L 45 36 L 45 55 L 46 56 L 57 56 L 59 54 L 59 37 L 58 36 L 58 35 L 57 35 L 56 34 Z M 51 54 L 52 53 L 53 54 L 52 55 Z M 49 37 L 55 37 L 56 38 L 56 51 L 55 52 L 49 52 L 48 51 L 48 38 Z M 54 19 L 35 19 L 31 22 L 31 54 L 33 56 L 43 56 L 43 50 L 35 50 L 34 49 L 34 24 L 35 23 L 54 23 L 55 24 L 55 32 L 59 32 L 59 24 L 58 22 Z M 57 5 L 55 4 L 7 4 L 3 7 L 3 42 L 6 45 L 22 45 L 23 50 L 20 51 L 18 53 L 18 55 L 20 57 L 28 57 L 27 41 L 8 41 L 7 40 L 7 9 L 8 8 L 54 8 L 55 9 L 55 16 L 59 17 L 59 8 Z" fill="#6450c6" fill-rule="evenodd" />
</svg>