<svg width="62" height="43" viewBox="0 0 62 43" fill="none" xmlns="http://www.w3.org/2000/svg">
<path fill-rule="evenodd" clip-rule="evenodd" d="M4.95988 5.068C0.992908 9.379 0.399634 10.536 0.988973 12.818C1.36973 14.293 1.90102 21.688 2.16863 29.25L2.65663 43H6.9896C9.37254 43 11.3226 42.55 11.3226 42C11.3226 41.45 9.77297 41 7.87902 41H4.43547V31.628V22.256L8.28831 22.359C10.7952 22.426 12.8584 21.803 14.1915 20.576C16.1888 18.739 16.2941 18.738 18.2589 20.545C20.8622 22.94 26.3797 22.94 28.9831 20.545C30.8062 18.868 31.1653 18.837 32.7218 20.227C35.8977 23.061 38.7165 23.29 42.5014 21.021C44.4603 19.846 46.3267 19.293 46.6485 19.792C47.9226 21.769 51.9013 23.105 54.6709 22.487L57.5645 21.841V31.421C57.5645 40.333 57.4277 41 55.5968 41C53.7923 41 53.629 40.333 53.629 32.964V24.928L44.0363 25.214L34.4435 25.5L34.1562 33.25L33.869 41H30.4667C28.5954 41 27.0645 41.45 27.0645 42C27.0645 42.626 33.1006 43 43.2039 43H59.3433L59.8313 29.25C60.099 21.688 60.6302 14.293 61.011 12.818C61.6003 10.536 61.0071 9.379 57.0401 5.068L52.3756 0H40.7039C33.5787 0 29.0322 0.39 29.0322 1C29.0322 1.608 33.3987 2 40.1628 2C51.0729 2 51.3455 2.055 53.937 4.805C55.3911 6.347 56.5806 7.922 56.5806 8.305C56.5806 8.687 45.0693 9 31 9C16.9306 9 5.41934 8.634 5.41934 8.187C5.41934 7.74 6.66099 6.165 8.1791 4.687C10.6506 2.28 11.6758 2 18.0178 2C22.0812 2 25.0968 1.574 25.0968 1C25.0968 0.418 21.8618 0 17.3606 0H9.62441L4.95988 5.068ZM58.5484 13.929C58.5484 21.758 49.1072 22.199 46.3159 14.5C45.6685 12.713 45.4157 12.873 43.9438 16C42.468 19.136 41.8875 19.5 38.3702 19.5C34.906 19.5 34.2694 19.12 32.9677 16.272C32.156 14.496 31.2706 13.043 31 13.043C30.7294 13.043 29.8439 14.496 29.0322 16.272C27.7296 19.121 27.095 19.5 23.621 19.5C20.1253 19.5 19.5281 19.137 18.2785 16.25C16.7634 12.751 15.2581 11.965 15.2581 14.671C15.2581 17.235 12.2838 20 9.52602 20C6.14347 20 3.4516 17.273 3.4516 13.845V11H31H58.5484V13.929ZM42.8064 34V41H39.8548H36.9032V34V27H39.8548H42.8064V34ZM51.6613 34V41H48.2177H44.7742V34V27H48.2177H51.6613V34ZM8.37096 30C8.37096 30.55 8.9908 31 9.74936 31C10.5306 31 11.5026 32.622 11.9965 34.75L12.8653 38.5L19.3933 38.794C25.4716 39.067 25.9655 38.93 26.5706 36.794C28.3367 30.562 28.7076 31 21.6611 31C17.5652 31 15.3682 31.372 15.75 32C16.0845 32.55 18.3563 33 20.7992 33C24.4996 33 25.1853 33.292 24.9098 34.75C24.6462 36.138 23.5619 36.5 19.6717 36.5C14.8212 36.5 14.7563 36.458 13.8551 32.75C13.128 29.758 12.4806 29 10.6575 29C9.40009 29 8.37096 29.45 8.37096 30ZM14.2742 41.5C14.2742 42.325 14.9383 43 15.75 43C16.5617 43 17.2258 42.325 17.2258 41.5C17.2258 40.675 16.5617 40 15.75 40C14.9383 40 14.2742 40.675 14.2742 41.5ZM21.3758 41.154C21.8864 42.712 24.0873 42.984 24.165 41.5C24.1936 40.95 23.4783 40.345 22.5761 40.154C21.5499 39.939 21.1003 40.313 21.3758 41.154Z" fill="black"/>
</svg>
