<svg width="60" height="62" viewBox="0 0 60 62" fill="none" xmlns="http://www.w3.org/2000/svg">
<path fill-rule="evenodd" clip-rule="evenodd" d="M2.02357 1.92798C0.873425 3.21998 0.533989 4.58598 0.996408 6.06498C1.3752 7.27998 6.6153 13.118 12.6405 19.038L23.594 29.802L21.6941 31.936C20.6482 33.11 19.26 33.863 18.6087 33.609C17.9574 33.354 13.6126 37.106 8.95396 41.945C-0.427253 51.688 -1.35209 54.225 2.89921 58.545C7.14954 62.866 9.64562 61.926 19.2315 52.391C24.0426 47.606 27.6721 43.209 27.4015 42.492C26.2868 39.539 28.9531 40.35 32.499 44.041C37.5925 49.343 41.5929 49.592 36.705 44.303L34.5553 41.977L37.8975 38.472L41.2407 34.967L49.394 43.211C58.2134 52.128 59.2858 54.797 55.1546 57.548C52.5995 59.25 50.2559 58.619 47.7539 55.555C46.1669 53.611 44.758 53.551 44.758 55.427C44.758 57.565 49.577 61 52.5758 61C56.4739 61 59.5161 57.632 59.5161 53.316C59.5161 50.088 58.4653 48.625 49.4924 39.356L39.4677 29.003L42.2973 26.001C45.2795 22.837 47.2954 22.049 46.4099 24.394C45.8747 25.811 49.5003 30 51.2634 30C52.8061 30 59.5161 22.572 59.5161 20.863C59.5161 19.094 56.4936 16 54.765 16C54.1313 16 53.6128 15.425 53.6128 14.721C53.6128 14.018 50.7842 10.593 47.3279 7.11098C41.9431 1.68698 40.428 0.71098 36.7513 0.30098C33.3579 -0.0770203 31.7581 0.31298 29.1086 2.16198C24.3624 5.47298 23.3667 7.40098 25.3561 9.42298C26.4492 10.534 27.7862 10.85 29.5208 10.407C31.4216 9.92298 32.6938 10.344 34.4815 12.052C35.8048 13.315 36.887 14.854 36.887 15.471C36.887 16.089 35.1899 18.279 33.1149 20.338L29.3427 24.082L19.1646 13.291C10.0667 3.64498 6.14992 0.14598 4.32583 0.0349797C4.0041 0.0159797 2.96809 0.86798 2.02357 1.92798ZM38.5449 3.05698C42.1016 4.41398 50.6612 12.915 50.6612 15.09C50.6612 17.088 53.1573 19.404 54.4422 18.597C54.946 18.281 55.9269 18.719 56.6215 19.57C57.6871 20.875 57.4086 21.604 54.8535 24.201C51.5969 27.511 48.6935 27.489 48.6935 24.154C48.6935 21.465 46.0095 19.328 44.5268 20.835C42.8788 22.51 38.8548 18.369 38.8548 15C38.8548 11.144 34.7255 7.58098 30.4014 7.70498C26.9686 7.80398 26.9431 7.77498 28.7042 5.78498C30.3099 3.96898 33.2939 2.23298 35.1013 2.06298C35.4722 2.02898 37.0218 2.47598 38.5449 3.05698ZM8.30657 4.92798C10.3648 6.53598 10.5272 7.04498 9.41539 8.40598C7.47618 10.781 5.62946 10.345 3.9923 7.12698C1.75104 2.72198 4.00902 1.57098 8.30657 4.92798ZM22.5166 19.893C31.3636 28.919 33.1857 32 29.6772 32C29.023 32 24.1715 27.597 18.897 22.216C11.3684 14.535 9.56396 12.171 10.5036 11.216C11.1618 10.547 11.9518 9.99998 12.2598 9.99998C12.5677 9.99998 17.1831 14.452 22.5166 19.893ZM39.33 21.981C40.7064 23.528 40.8412 24.272 39.9439 25.371C38.4061 27.254 33.7544 28.084 32.1753 26.757C31.1727 25.914 31.4679 25.096 33.5891 22.845C36.7778 19.462 37.0504 19.421 39.33 21.981ZM38.1985 31.815C39.7157 33.519 39.6045 33.838 36.4049 36.99C33.0588 40.287 32.9575 40.315 30.9809 38.498L28.9679 36.646L32.1369 33.323C35.8176 29.463 36.0517 29.405 38.1985 31.815ZM26.8791 35.449C27.3268 39.32 25.9995 40.213 23.225 37.908C20.9464 36.016 20.9296 35.9 22.6612 33.955C24.9517 31.383 26.4718 31.921 26.8791 35.449ZM17.9672 50.625C14.0327 54.574 9.84141 58.097 8.65092 58.454C6.21191 59.185 2.45155 56.111 2.45155 53.385C2.45155 52.497 5.85673 48.214 10.0175 43.868L17.5835 35.966L21.3517 39.705L25.119 43.444L17.9672 50.625ZM40.8225 51C40.8225 51.55 41.2653 52 41.8064 52C42.3475 52 42.7903 51.55 42.7903 51C42.7903 50.45 42.3475 50 41.8064 50C41.2653 50 40.8225 50.45 40.8225 51Z" fill="black"/>
</svg>
